<mxfile host="app.diagrams.net" modified="2024-02-20T14:15:18.946Z" agent="Mozilla/5.0 (Macintosh; Intel Mac OS X 10_15_7) AppleWebKit/537.36 (KHTML, like Gecko) Chrome/121.0.0.0 Safari/537.36" version="23.1.5" etag="ifWYYcf1S-1I7Du2u17-" type="github">
  <diagram name="Page-1" id="IGlu0X0bkP7qnER6-_ja">
    <mxGraphModel>
      <root>
        <mxCell id="0" />
        <mxCell id="1" parent="0" />
      </root>
    </mxGraphModel>
  </diagram>
</mxfile>
